<?xml version="1.0" standalone="no"?><!DOCTYPE svg PUBLIC "-//W3C//DTD SVG 1.1//EN" "http://www.w3.org/Graphics/SVG/1.1/DTD/svg11.dtd"><svg class="icon" width="200px" height="200.00px" viewBox="0 0 1024 1024" version="1.1" xmlns="http://www.w3.org/2000/svg"><path d="M711.94535 678.007647c21.938791-41.869743 34.412786-89.855152 34.412786-140.875358 0-151.723423-110.21204-276.698866-252.05497-293.416865-141.853168 16.718-252.065209 141.693442-252.065209 293.417889 0 51.020206 12.476043 99.005615 34.412786 140.875358h435.294607z" fill="#FDD72C" /><path d="M746.358136 537.133313c0 51.020206-12.473995 99.005615-34.412786 140.875358h64.908186c21.933671-41.872814 34.392308-89.863343 34.392308-140.875358 0-163.111076-127.376454-295.34177-284.500871-295.34177-2.655959 0-5.300654 0.045051-7.941255 0.118771-0.462796 0.015358-0.920473 0.038908-1.37815 0.05529-2.260739 0.081911-4.517382 0.170989-6.767882 0.305118a294.187851 294.187851 0 0 0-8.235109 0.607164c-0.089078 0.008191-0.173037 0.016382-0.263139 0.021501-2.629338 0.241637-5.248436 0.506823-7.856272 0.818085 141.84293 16.715952 252.05497 141.691395 252.05497 293.415841z" fill="#F87C22" /><path d="M502.422577 242.876862zM510.657686 242.269698zM494.303166 243.716448zM518.803718 241.910314z" fill="#FDD72C" /><path d="M168.032892 166.444846a8.078455 8.078455 0 0 1-8.077431 8.077432 8.076407 8.076407 0 0 1-8.077431-8.077432 8.076407 8.076407 0 0 1 8.077431-8.077431 8.080503 8.080503 0 0 1 8.077431 8.077431zM843.001648 242.876862a8.080503 8.080503 0 0 1-8.077432 8.077431 8.076407 8.076407 0 0 1-8.077431-8.077431 8.076407 8.076407 0 0 1 8.077431-8.077432 8.080503 8.080503 0 0 1 8.077432 8.077432zM951.299023 433.935911a8.078455 8.078455 0 0 1-8.077432 8.077432 8.076407 8.076407 0 0 1-8.077431-8.077432 8.076407 8.076407 0 0 1 8.077431-8.077431 8.078455 8.078455 0 0 1 8.077432 8.077431z" fill="#FD5C1E" /><path d="M260.696562 198.372662c-13.149759 0-23.848337-10.698578-23.848337-23.850384s10.698578-23.850385 23.848337-23.850385c13.149759 0 23.848337 10.698578 23.848337 23.850385s-10.699602 23.850385-23.848337 23.850384z m0-36.931543c-7.212248 0-13.078087 5.868911-13.078087 13.081159s5.865839 13.081159 13.078087 13.081158 13.078087-5.868911 13.078087-13.081158-5.865839-13.081159-13.078087-13.081159zM112.374486 349.750012a4.163118 4.163118 0 0 1-4.165165-4.162094v-4.165165a4.540931 4.540931 0 1 0-9.081863 0v4.165165a4.163118 4.163118 0 0 1-4.165166 4.162094h-4.165165a4.545027 4.545027 0 0 0 0 9.088006h4.165165a4.164142 4.164142 0 0 1 4.165166 4.162094v4.165165a4.540931 4.540931 0 0 0 9.081863 0v-4.165165a4.163118 4.163118 0 0 1 4.165165-4.162094h4.165166a4.545027 4.545027 0 0 0 0-9.088006h-4.165166zM791.209433 182.415409a5.293487 5.293487 0 0 1-5.295535-5.298606v-5.298607a5.778809 5.778809 0 0 0-5.779833-5.776761 5.778809 5.778809 0 0 0-5.779833 5.776761v5.298607a5.295535 5.295535 0 0 1-5.300654 5.298606h-5.295535a5.779833 5.779833 0 1 0 0 11.56069h5.295535a5.296559 5.296559 0 0 1 5.300654 5.300654v5.298607a5.778809 5.778809 0 0 0 5.779833 5.776761 5.779833 5.779833 0 0 0 5.779833-5.776761v-5.298607a5.295535 5.295535 0 0 1 5.295535-5.300654h5.300654a5.780857 5.780857 0 0 0 0-11.56069h-5.300654z" fill="#2BA9FC" /><path d="M99.804246 218.94559a5.55765 5.55765 0 0 1-5.555602-5.555602v-5.555601a6.060377 6.060377 0 1 0-12.120754 0v5.555601a5.55765 5.55765 0 0 1-5.555602 5.555602h-5.555602a6.061401 6.061401 0 1 0 0 12.120755h5.555602a5.55765 5.55765 0 0 1 5.555602 5.555601v5.555602a6.060377 6.060377 0 1 0 12.120754 0v-5.555602a5.55765 5.55765 0 0 1 5.555602-5.555601h5.555602a6.061401 6.061401 0 1 0 0-12.120755h-5.555602z" fill="#FD5C1E" /><path d="M188.373398 257.720127a4.526597 4.526597 0 0 1-4.527621-4.530692v-4.532741a4.943318 4.943318 0 0 0-9.886636 0v4.532741a4.530693 4.530693 0 0 1-4.532741 4.530692h-4.527621a4.939223 4.939223 0 0 0-4.943318 4.943319 4.939223 4.939223 0 0 0 4.943318 4.943318h4.527621a4.530693 4.530693 0 0 1 4.532741 4.530693v4.53274a4.943318 4.943318 0 0 0 9.886636 0v-4.53274a4.526597 4.526597 0 0 1 4.527621-4.530693h4.532741a4.942294 4.942294 0 1 0 0-9.886637h-4.532741zM945.288816 257.720127a4.526597 4.526597 0 0 1-4.527621-4.530692v-4.532741a4.943318 4.943318 0 0 0-9.886637 0v4.532741a4.530693 4.530693 0 0 1-4.53274 4.530692h-4.527621a4.939223 4.939223 0 0 0-4.943319 4.943319 4.939223 4.939223 0 0 0 4.943319 4.943318h4.527621a4.530693 4.530693 0 0 1 4.53274 4.530693v4.53274a4.943318 4.943318 0 0 0 9.886637 0v-4.53274a4.526597 4.526597 0 0 1 4.527621-4.530693h4.53274a4.942294 4.942294 0 1 0 0-9.886637h-4.53274z" fill="#FED62C" /><path d="M872.619579 330.757963a3.61022 3.61022 0 0 0-3.613292 3.615339l-0.005119 15.891724a3.624554 3.624554 0 0 0 3.618411 3.618411 3.622506 3.622506 0 0 0 3.612267-3.618411V334.373302a3.616363 3.616363 0 0 0-3.612267-3.615339zM872.613435 385.672005a3.614315 3.614315 0 0 0-3.612267 3.610219l0.005119 15.899916a3.606124 3.606124 0 0 0 3.613292 3.607148 3.609196 3.609196 0 0 0 3.612267-3.607148v-15.899916a3.613291 3.613291 0 0 0-3.618411-3.610219zM856.270178 358.536996a3.606124 3.606124 0 0 0 5.106116-0.003072 3.6051 3.6051 0 0 0 0-5.109188l-11.238165-11.238165a3.613291 3.613291 0 0 0-5.111236 5.106116l11.243285 11.244309zM888.962836 381.015374a3.607148 3.607148 0 0 0-5.106116 0 3.618411 3.618411 0 0 0 0 5.111236l11.243285 11.238165a3.611244 3.611244 0 1 0 5.106116-5.109188l-11.243285-11.240213zM856.721711 369.775161a3.612267 3.612267 0 0 0-3.612267-3.610219h-15.891724a3.613291 3.613291 0 1 0 0 7.225558h15.891724a3.612267 3.612267 0 0 0 3.612267-3.615339zM908.020414 366.164942h-15.896844a3.6051 3.6051 0 0 0-3.607148 3.612267 3.604076 3.604076 0 0 0 3.612268 3.612267h15.891724c1.998624 0 3.612267-1.619787 3.612267-3.615339s-1.613643-3.617387-3.612267-3.609195zM856.270178 381.015374l-11.243285 11.240213a3.616363 3.616363 0 0 0 0 5.109188c1.41501 1.406818 3.702369 1.417057 5.111236 0l11.238165-11.238165a3.608172 3.608172 0 0 0 0-5.111236 3.607148 3.607148 0 0 0-5.106116 0zM888.968979 358.536996l11.238166-11.243285a3.612267 3.612267 0 0 0 0-5.106116 3.607148 3.607148 0 0 0-5.106116 0l-11.243285 11.240213a3.616363 3.616363 0 0 0 0 5.109188 3.608172 3.608172 0 0 0 5.111235 0z" fill="#FED62C" /><path d="M442.37887 517.443998m-14.358968 0a14.358968 14.358968 0 1 0 28.717935 0 14.358968 14.358968 0 1 0-28.717935 0Z"  /><path d="M419.043499 559.62705m-19.480442 0a19.480442 19.480442 0 1 0 38.960884 0 19.480442 19.480442 0 1 0-38.960884 0Z" fill="#FEBB29" /><path d="M614.616859 559.62705c0 10.756939-8.724527 19.481466-19.478395 19.481466-10.758987 0-19.483514-8.724527-19.483513-19.481466s8.724527-19.480442 19.483513-19.480442c10.753868-0.001024 19.478394 8.723503 19.478395 19.480442z" fill="#FEBB29" /><path d="M584.632377 517.443998c0 7.92692-6.431024 14.358968-14.361015 14.358968-7.924872 0-14.35692-6.431024-14.35692-14.358968s6.431024-14.358968 14.35692-14.358968c7.928968 0 14.361016 6.432048 14.361015 14.358968zM544.149999 549.943142c1.30443-5.124546-3.107492-9.48425-8.403027-9.484249h-57.498328c-5.295535 0-9.710528 4.359704-8.400979 9.484249 4.217384 16.585918 19.260307 28.852065 37.149631 28.852065 17.895468 0 32.9302-12.266146 37.152703-28.852065z"  /><path d="M525.192762 565.55637c0 5.151167-8.146032 9.328619-18.195466 9.328619-10.044315 0-18.195466-4.178476-18.195466-9.328619 0-5.151167 8.151151-9.328619 18.195466-9.32862 10.049434-0.001024 18.195466 4.177452 18.195466 9.32862z" fill="#F27E38" /><path d="M200.747052 605.769466c-5.724543 0-10.814277-4.073016-11.897547-9.901995-3.581551-19.243925-5.395876-39.003888-5.395876-58.734158 0-175.927048 143.12893-319.055978 319.058026-319.055978 73.056266 0 141.797879 24.029565 198.791431 69.488026 5.232054 4.170285 6.09007 11.795159 1.916713 17.025165-4.165166 5.232054-11.79004 6.092118-17.025165 1.916713-52.658422-41.998752-116.175148-64.198634-183.684003-64.198634-162.567392 0-294.825732 132.256291-294.825732 294.823684 0 18.247684 1.677124 36.515846 4.985298 54.301758 1.225591 6.578463-3.115683 12.905051-9.694146 14.12757-0.74846 0.139248-1.494873 0.207849-2.228999 0.207849zM228.084791 686.871422a12.113587 12.113587 0 0 1-10.837827-6.680851 318.733454 318.733454 0 0 1-14.835074-34.471148c-2.277121-6.291775 0.97781-13.238837 7.27061-15.515958 6.294847-2.26893 13.238837 0.97781 15.515958 7.27061a294.2114 294.2114 0 0 0 13.703681 31.84181c3.003056 5.97949 0.591806 13.260339-5.389732 16.265442a12.082871 12.082871 0 0 1-5.427616 1.290095zM776.280161 688.162542c-1.846065 0-3.720799-0.422865-5.479835-1.317741-5.96618-3.034796-8.342618-10.327931-5.310893-16.291039 21.131969-41.569744 31.846929-86.457901 31.846929-133.420449 0-50.546147-13.00232-100.407314-37.602188-144.187627-3.278481-5.832051-1.207161-13.220407 4.627961-16.49684 5.832051-3.273361 13.223479-1.204089 16.496841 4.627961 26.632281 47.396676 40.709681 101.361576 40.70968 156.056506 0 50.814405-11.600621 99.399811-34.476266 144.401619a12.115635 12.115635 0 0 1-10.812229 6.62761zM749.081671 366.40965a12.098229 12.098229 0 0 1-9.952166-5.190075c-6.045019-8.676404-9.368551-12.620411-14.984561-18.702289-4.53786-4.916697-4.233766-12.581503 0.683955-17.122434 4.91465-4.53786 12.578431-4.235814 17.122434 0.683955 6.157646 6.673685 10.283904 11.558641 17.062026 21.289648 3.825236 5.490073 2.474731 13.041227-3.015343 16.867487a12.066489 12.066489 0 0 1-6.916345 2.173708zM884.840674 690.042395H849.83813c-6.692114 0-12.115635-5.424544-12.115635-12.115635s5.424544-12.115635 12.115635-12.115635h35.00152c6.692114 0 12.115635 5.424544 12.115635 12.115635s-5.423521 12.115635-12.114611 12.115635z"  /><path d="M809.451997 690.042395H478.277313c-6.692114 0-12.115635-5.424544-12.115635-12.115635s5.424544-12.115635 12.115635-12.115635h331.17366c6.692114 0 12.115635 5.424544 12.115636 12.115635s-5.423521 12.115635-12.114612 12.115635zM435.198362 690.042395H134.542627c-6.692114 0-12.115635-5.424544-12.115635-12.115635s5.424544-12.115635 12.115635-12.115635h300.655735c6.692114 0 12.115635 5.424544 12.115635 12.115635s-5.423521 12.115635-12.115635 12.115635zM723.293071 747.480314H623.672101c-6.692114 0-12.115635-5.424544-12.115635-12.115635s5.424544-12.115635 12.115635-12.115635h99.62097c6.692114 0 12.115635 5.424544 12.115635 12.115635s-5.423521 12.115635-12.115635 12.115635zM576.775081 747.480314H203.792087c-6.692114 0-12.115635-5.424544-12.115635-12.115635s5.424544-12.115635 12.115635-12.115635h372.982994c6.692114 0 12.115635 5.424544 12.115635 12.115635s-5.423521 12.115635-12.115635 12.115635zM647.231702 812.995664H359.809685c-6.692114 0-12.115635-5.424544-12.115635-12.115635s5.424544-12.115635 12.115635-12.115635H647.231702c6.692114 0 12.115635 5.424544 12.115635 12.115635s-5.424544 12.115635-12.115635 12.115635zM317.911274 812.995664h-36.18206c-6.692114 0-12.115635-5.424544-12.115635-12.115635s5.424544-12.115635 12.115635-12.115635h36.18206c6.692114 0 12.115635 5.424544 12.115635 12.115635s-5.424544 12.115635-12.115635 12.115635zM555.909322 865.948966H428.46734c-6.692114 0-12.115635-5.424544-12.115635-12.115635s5.424544-12.115635 12.115635-12.115635h127.441982c6.692114 0 12.115635 5.424544 12.115635 12.115635s-5.424544 12.115635-12.115635 12.115635z"  /></svg>